<svg aria-hidden="true" style="width:0;height:0;position:absolute;overflow:hidden" xmlns="http://www.w3.org/2000/svg"><defs><symbol id="icon-logo1_1x" viewBox="0 0 37 32"><path d="M8.557 24.181c1.051-.082 1.733-.766 2.019-2.106l3.47-14.958c.319-1.34-.027-1.942-1.103-2.027l.079-.301h4.939l-.079.301c-1.077.027-1.681.492-2.019 2.027l-3.471 14.986c-.319 1.312.184 1.996 1.103 2.078l-.079.301H8.479l.079-.301zM27.044 24.181c1.051-.082 1.733-.766 2.019-2.106l3.47-14.958c.319-1.34-.027-1.942-1.103-2.027l.08-.301h4.942l-.079.301c-1.077.027-1.68.492-2.019 2.027l-3.475 14.986c-.319 1.312.184 1.996 1.103 2.078l-.079.301h-4.938l.079-.301z"/><path d="M30.377 1.053c-.307.623-.672.859-1.05.859-.638 0-.724-.314-1.594-.838C26.69.451 25.521-.028 24.293.001a4.763 4.763 0 0 0-2.374.69 4.594 4.594 0 0 0-1.807 2.018c-.445.98-.489 2.013-.309 3.061.219 1.28.681 2.479 1.156 3.676.697 1.751 1.432 3.489 2.085 5.258.661 1.788 1.035 3.636.902 5.565-.085 1.232-.26 2.447-.644 3.627-1.108 3.404-3.313 5.694-6.681 6.947-2.683.997-5.174 1.099-7.911.266-3.275-.996-5.402-3.033-6.434-6.317-.531-1.681-.531-3.395-.206-5.111.41-2.186 1.297-4.137 2.896-5.714.934-.923 2.019-1.569 3.284-1.865l.069-.236a5.097 5.097 0 0 0-.407.092c-2.41.658-4.415 1.955-5.928 3.947C-.055 18.584-.499 21.57.545 24.749c.752 2.295 2.287 3.994 4.317 5.25 1.643 1.015 3.44 1.594 5.348 1.849 1.582.213 2.903.226 4.469-.1 4.236-.885 7.509-3.153 9.687-6.933a11.597 11.597 0 0 0 1.531-5.428c.051-1.337-.204-2.625-.565-3.899-.519-1.824-1.255-3.568-1.967-5.321a159.55 159.55 0 0 1-1.791-4.559c-.319-.87-.548-1.774-.443-2.723.078-.691.343-1.29.872-1.75.833-.725 2.074-.86 3.131-.704a3.99 3.99 0 0 1 2.551 1.505c.145.187.276.384.392.591.685 1.218.901 2.734.595 4.542l.301.038 1.604-6.026-.199-.026z"/></symbol><symbol id="icon-logo1_2x" viewBox="0 0 37 32"><path d="M8.557 24.181c1.051-.082 1.733-.766 2.019-2.106l3.47-14.958c.319-1.34-.027-1.942-1.103-2.027l.079-.301h4.939l-.079.301c-1.077.027-1.681.492-2.019 2.027l-3.471 14.986c-.319 1.312.184 1.996 1.103 2.078l-.079.301H8.479l.079-.301zM27.044 24.181c1.051-.082 1.733-.766 2.019-2.106l3.47-14.958c.319-1.34-.027-1.942-1.103-2.027l.08-.301h4.942l-.079.301c-1.077.027-1.68.492-2.019 2.027l-3.475 14.986c-.319 1.312.184 1.996 1.103 2.078l-.079.301h-4.938l.079-.301z"/><path d="M30.377 1.053c-.307.623-.672.859-1.05.859-.638 0-.724-.314-1.594-.838C26.69.451 25.521-.028 24.293.001a4.763 4.763 0 0 0-2.374.69 4.594 4.594 0 0 0-1.807 2.018c-.445.98-.489 2.013-.309 3.061.219 1.28.681 2.479 1.156 3.676.697 1.751 1.432 3.489 2.085 5.258.661 1.788 1.035 3.636.902 5.565-.085 1.232-.26 2.447-.644 3.627-1.108 3.404-3.313 5.694-6.681 6.947-2.683.997-5.174 1.099-7.911.266-3.275-.996-5.402-3.033-6.434-6.317-.531-1.681-.531-3.395-.206-5.111.41-2.186 1.297-4.137 2.896-5.714.934-.923 2.019-1.569 3.284-1.865l.069-.236a5.097 5.097 0 0 0-.407.092c-2.41.658-4.415 1.955-5.928 3.947C-.055 18.584-.499 21.57.545 24.749c.752 2.295 2.287 3.994 4.317 5.25 1.643 1.015 3.44 1.594 5.348 1.849 1.582.213 2.903.226 4.469-.1 4.236-.885 7.509-3.153 9.687-6.933a11.597 11.597 0 0 0 1.531-5.428c.051-1.337-.204-2.625-.565-3.899-.519-1.824-1.255-3.568-1.967-5.321a159.55 159.55 0 0 1-1.791-4.559c-.319-.87-.548-1.774-.443-2.723.078-.691.343-1.29.872-1.75.833-.725 2.074-.86 3.131-.704a3.99 3.99 0 0 1 2.551 1.505c.145.187.276.384.392.591.685 1.218.901 2.734.595 4.542l.301.038 1.604-6.026-.199-.026z"/></symbol><symbol id="icon-logo2_1x" viewBox="0 0 93 32"><path d="m59.705 4.794-.08.301c-1.151.027-1.884.656-2.093 2.297l-2.094 14.603c-.183 1.395.183 2.133 1.125 2.188l-.079.301H51.59l.078-.301c.968-.027 1.727-.766 1.906-2.078l2.36-15.587-4.083 7.739c-.392.794-.838 1.614-1.283 2.462l-1.073 2.027-1.413 2.762c-.655 1.28-.916 2.027-.916 2.679a8.598 8.598 0 0 0-1.727.766l-1.86-18.626-3.925 15.342c-.523 1.641.131 2.433 1.623 2.515l-.078.301h-4.973l.078-.301c1.388-.027 2.33-.875 2.853-2.489L42.82 7.449c.497-1.532.053-2.325-1.386-2.352l.052-.301h3.795l1.86 17.638 2.356-4.431 2.063-3.937c2.386-4.54 3.747-7.247 4.087-8.091.155-.38.278-.773.367-1.173l3.69-.006zM74.477 10.416h-.318c-.106-1.231-.409-3.244-.697-3.763-.288-.547-.785-.93-1.519-1.173-.701-.253-1.849-.359-3.449-.359h-3.06l-1.809 7.904h3.533c1.78 0 2.565-.683 2.958-2.133h.318l-1.103 4.704h-.289c.318-1.723-.13-2.24-1.989-2.24h-3.507l-2.355 10.255c.811.355 1.907.547 3.298.547 1.885 0 3.486-.329 4.555-.96s2.684-2.773 3.707-4.683h.34l-3.284 6.293c-.759-.218-1.806-.328-3.141-.329h-8.983l.08-.301c1.073-.082 1.675-.628 1.989-2.05L63.21 7.09c.318-1.422-.026-1.915-1.073-1.996l.078-.301h8.218c1.597 0 2.827-.192 3.638-.547l.405 6.17zM92.632 4.794l-.053.301c-1.466.027-2.224.738-2.747 2.926l-3.141 13.235a4.896 4.896 0 0 0 .051 2.681 7.977 7.977 0 0 0-1.674 1.121L78.411 7.173l-2.845 13.973c-.445 1.941.106 2.953 1.649 3.062l-.052.273h-5.314l.052-.273c1.624-.082 2.672-1.121 3.142-3.062L77.808 8.32c.499-2.106-.051-3.172-1.597-3.227l.079-.301h3.272l6.552 17.394 3.271-14.165c.446-2.051-.025-2.845-1.622-2.926l.053-.301 4.816-.001zM23.922 4.794l-.079.301c-1.151.027-1.884.656-2.093 2.297l-2.095 14.603c-.182 1.395.184 2.133 1.126 2.188l-.078.301h-4.894l.078-.301c.968-.027 1.728-.766 1.906-2.078l2.36-15.587-4.083 7.739c-.393.794-.838 1.614-1.283 2.462l-1.073 2.027-1.413 2.762c-.655 1.28-.916 2.027-.916 2.679a8.598 8.598 0 0 0-1.727.766L7.798 6.327 3.873 21.669c-.523 1.641.131 2.433 1.623 2.515l-.078.301H.445l.078-.301c1.388-.027 2.33-.875 2.852-2.489L7.039 7.449c.497-1.532.053-2.325-1.387-2.352l.053-.301H9.5l1.86 17.638 2.356-4.431 2.067-3.937c2.382-4.54 3.743-7.247 4.083-8.091.155-.38.278-.772.366-1.173l3.691-.006zM38.695 10.416h-.318c-.106-1.231-.409-3.244-.697-3.763-.288-.547-.786-.93-1.519-1.173-.701-.253-1.853-.359-3.45-.359h-3.063l-1.801 7.903h3.533c1.78 0 2.565-.683 2.958-2.133h.318l-1.104 4.705h-.288c.318-1.723-.13-2.24-1.989-2.24h-3.512l-2.356 10.253c.811.355 1.906.547 3.298.547 1.884 0 3.486-.329 4.554-.96s2.684-2.773 3.707-4.683h.34l-3.283 6.293c-.758-.218-1.805-.328-3.14-.329h-8.982l.079-.301c1.073-.082 1.674-.628 1.989-2.05l3.455-15.04c.318-1.422-.026-1.915-1.074-1.996l.079-.301h8.218c1.597 0 2.827-.192 3.638-.547l.407 6.174z"/></symbol><symbol id="icon-logo2_2x" viewBox="0 0 93 32"><path d="m59.705 4.794-.08.301c-1.151.027-1.884.656-2.093 2.297l-2.094 14.603c-.183 1.395.183 2.133 1.125 2.188l-.079.301H51.59l.078-.301c.968-.027 1.727-.766 1.906-2.078l2.36-15.587-4.083 7.739c-.392.794-.838 1.614-1.283 2.462l-1.073 2.027-1.413 2.762c-.655 1.28-.916 2.027-.916 2.679a8.598 8.598 0 0 0-1.727.766l-1.86-18.626-3.925 15.342c-.523 1.641.131 2.433 1.623 2.515l-.078.301h-4.973l.078-.301c1.388-.027 2.33-.875 2.853-2.489L42.82 7.449c.497-1.532.053-2.325-1.386-2.352l.052-.301h3.795l1.86 17.638 2.356-4.431 2.063-3.937c2.386-4.54 3.747-7.247 4.087-8.091.155-.38.278-.773.367-1.173l3.69-.006zM74.477 10.416h-.318c-.106-1.231-.409-3.244-.697-3.763-.288-.547-.785-.93-1.519-1.173-.701-.253-1.849-.359-3.449-.359h-3.06l-1.809 7.904h3.533c1.78 0 2.565-.683 2.958-2.133h.318l-1.103 4.704h-.289c.318-1.723-.13-2.24-1.989-2.24h-3.507l-2.355 10.255c.811.355 1.907.547 3.298.547 1.885 0 3.486-.329 4.555-.96s2.684-2.773 3.707-4.683h.34l-3.284 6.293c-.759-.218-1.806-.328-3.141-.329h-8.983l.08-.301c1.073-.082 1.675-.628 1.989-2.05L63.21 7.09c.318-1.422-.026-1.915-1.073-1.996l.078-.301h8.218c1.597 0 2.827-.192 3.638-.547l.405 6.17zM92.632 4.794l-.053.301c-1.466.027-2.224.738-2.747 2.926l-3.141 13.235a4.896 4.896 0 0 0 .051 2.681 7.977 7.977 0 0 0-1.674 1.121L78.411 7.173l-2.845 13.973c-.445 1.941.106 2.953 1.649 3.062l-.052.273h-5.314l.052-.273c1.624-.082 2.672-1.121 3.142-3.062L77.808 8.32c.499-2.106-.051-3.172-1.597-3.227l.079-.301h3.272l6.552 17.394 3.271-14.165c.446-2.051-.025-2.845-1.622-2.926l.053-.301 4.816-.001zM23.922 4.794l-.079.301c-1.151.027-1.884.656-2.093 2.297l-2.095 14.603c-.182 1.395.184 2.133 1.126 2.188l-.078.301h-4.894l.078-.301c.968-.027 1.728-.766 1.906-2.078l2.36-15.587-4.083 7.739c-.393.794-.838 1.614-1.283 2.462l-1.073 2.027-1.413 2.762c-.655 1.28-.916 2.027-.916 2.679a8.598 8.598 0 0 0-1.727.766L7.798 6.327 3.873 21.669c-.523 1.641.131 2.433 1.623 2.515l-.078.301H.445l.078-.301c1.388-.027 2.33-.875 2.852-2.489L7.039 7.449c.497-1.532.053-2.325-1.387-2.352l.053-.301H9.5l1.86 17.638 2.356-4.431 2.067-3.937c2.382-4.54 3.743-7.247 4.083-8.091.155-.38.278-.772.366-1.173l3.691-.006zM38.695 10.416h-.318c-.106-1.231-.409-3.244-.697-3.763-.288-.547-.786-.93-1.519-1.173-.701-.253-1.853-.359-3.45-.359h-3.063l-1.801 7.903h3.533c1.78 0 2.565-.683 2.958-2.133h.318l-1.104 4.705h-.288c.318-1.723-.13-2.24-1.989-2.24h-3.512l-2.356 10.253c.811.355 1.906.547 3.298.547 1.884 0 3.486-.329 4.554-.96s2.684-2.773 3.707-4.683h.34l-3.283 6.293c-.758-.218-1.805-.328-3.14-.329h-8.982l.079-.301c1.073-.082 1.674-.628 1.989-2.05l3.455-15.04c.318-1.422-.026-1.915-1.074-1.996l.079-.301h8.218c1.597 0 2.827-.192 3.638-.547l.407 6.174z"/></symbol></defs></svg>