<svg aria-hidden="true" style="position: absolute; width: 0; height: 0; overflow: hidden;" version="1.1" xmlns="http://www.w3.org/2000/svg" xmlns:xlink="http://www.w3.org/1999/xlink">
<defs>
<symbol id="icon-logo1_1x" viewBox="0 0 37 32">
<path d="M8.557 24.181c1.051-0.082 1.733-0.766 2.019-2.106l3.47-14.958c0.319-1.34-0.027-1.942-1.103-2.027l0.079-0.301h4.939l-0.079 0.301c-1.077 0.027-1.681 0.492-2.019 2.027l-3.471 14.986c-0.319 1.312 0.184 1.996 1.103 2.078l-0.079 0.301h-4.937l0.079-0.301z"></path>
<path d="M27.044 24.181c1.051-0.082 1.733-0.766 2.019-2.106l3.47-14.958c0.319-1.34-0.027-1.942-1.103-2.027l0.080-0.301h4.942l-0.079 0.301c-1.077 0.027-1.68 0.492-2.019 2.027l-3.475 14.986c-0.319 1.312 0.184 1.996 1.103 2.078l-0.079 0.301h-4.938l0.079-0.301z"></path>
<path d="M30.377 1.053c-0.307 0.623-0.672 0.859-1.050 0.859-0.638 0-0.724-0.314-1.594-0.838-1.043-0.623-2.212-1.102-3.44-1.073-0.838 0.017-1.657 0.255-2.374 0.69-0.791 0.475-1.42 1.178-1.807 2.018-0.445 0.98-0.489 2.013-0.309 3.061 0.219 1.28 0.681 2.479 1.156 3.676 0.697 1.751 1.432 3.489 2.085 5.258 0.661 1.788 1.035 3.636 0.902 5.565-0.085 1.232-0.26 2.447-0.644 3.627-1.108 3.404-3.313 5.694-6.681 6.947-2.683 0.997-5.174 1.099-7.911 0.266-3.275-0.996-5.402-3.033-6.434-6.317-0.531-1.681-0.531-3.395-0.206-5.111 0.41-2.186 1.297-4.137 2.896-5.714 0.934-0.923 2.019-1.569 3.284-1.865l0.069-0.236c-0.137 0.026-0.273 0.055-0.407 0.092-2.41 0.658-4.415 1.955-5.928 3.947-2.039 2.679-2.483 5.665-1.439 8.844 0.752 2.295 2.287 3.994 4.317 5.25 1.643 1.015 3.44 1.594 5.348 1.849 1.582 0.213 2.903 0.226 4.469-0.1 4.236-0.885 7.509-3.153 9.687-6.933 0.949-1.655 1.475-3.52 1.531-5.428 0.051-1.337-0.204-2.625-0.565-3.899-0.519-1.824-1.255-3.568-1.967-5.321-0.615-1.511-1.222-3.028-1.791-4.559-0.319-0.87-0.548-1.774-0.443-2.723 0.078-0.691 0.343-1.29 0.872-1.75 0.833-0.725 2.074-0.86 3.131-0.704 1.011 0.155 1.924 0.694 2.551 1.505 0.145 0.187 0.276 0.384 0.392 0.591 0.685 1.218 0.901 2.734 0.595 4.542l0.301 0.038 1.604-6.026-0.199-0.026z"></path>
</symbol>
<symbol id="icon-logo1_2x" viewBox="0 0 37 32">
<path d="M8.557 24.181c1.051-0.082 1.733-0.766 2.019-2.106l3.47-14.958c0.319-1.34-0.027-1.942-1.103-2.027l0.079-0.301h4.939l-0.079 0.301c-1.077 0.027-1.681 0.492-2.019 2.027l-3.471 14.986c-0.319 1.312 0.184 1.996 1.103 2.078l-0.079 0.301h-4.937l0.079-0.301z"></path>
<path d="M27.044 24.181c1.051-0.082 1.733-0.766 2.019-2.106l3.47-14.958c0.319-1.34-0.027-1.942-1.103-2.027l0.080-0.301h4.942l-0.079 0.301c-1.077 0.027-1.68 0.492-2.019 2.027l-3.475 14.986c-0.319 1.312 0.184 1.996 1.103 2.078l-0.079 0.301h-4.938l0.079-0.301z"></path>
<path d="M30.377 1.053c-0.307 0.623-0.672 0.859-1.050 0.859-0.638 0-0.724-0.314-1.594-0.838-1.043-0.623-2.212-1.102-3.44-1.073-0.838 0.017-1.657 0.255-2.374 0.69-0.791 0.475-1.42 1.178-1.807 2.018-0.445 0.98-0.489 2.013-0.309 3.061 0.219 1.28 0.681 2.479 1.156 3.676 0.697 1.751 1.432 3.489 2.085 5.258 0.661 1.788 1.035 3.636 0.902 5.565-0.085 1.232-0.26 2.447-0.644 3.627-1.108 3.404-3.313 5.694-6.681 6.947-2.683 0.997-5.174 1.099-7.911 0.266-3.275-0.996-5.402-3.033-6.434-6.317-0.531-1.681-0.531-3.395-0.206-5.111 0.41-2.186 1.297-4.137 2.896-5.714 0.934-0.923 2.019-1.569 3.284-1.865l0.069-0.236c-0.137 0.026-0.273 0.055-0.407 0.092-2.41 0.658-4.415 1.955-5.928 3.947-2.039 2.679-2.483 5.665-1.439 8.844 0.752 2.295 2.287 3.994 4.317 5.25 1.643 1.015 3.44 1.594 5.348 1.849 1.582 0.213 2.903 0.226 4.469-0.1 4.236-0.885 7.509-3.153 9.687-6.933 0.949-1.655 1.475-3.52 1.531-5.428 0.051-1.337-0.204-2.625-0.565-3.899-0.519-1.824-1.255-3.568-1.967-5.321-0.615-1.511-1.222-3.028-1.791-4.559-0.319-0.87-0.548-1.774-0.443-2.723 0.078-0.691 0.343-1.29 0.872-1.75 0.833-0.725 2.074-0.86 3.131-0.704 1.011 0.155 1.924 0.694 2.551 1.505 0.145 0.187 0.276 0.384 0.392 0.591 0.685 1.218 0.901 2.734 0.595 4.542l0.301 0.038 1.604-6.026-0.199-0.026z"></path>
</symbol>
<symbol id="icon-logo2_1x" viewBox="0 0 93 32">
<path d="M59.705 4.794l-0.080 0.301c-1.151 0.027-1.884 0.656-2.093 2.297l-2.094 14.603c-0.183 1.395 0.183 2.133 1.125 2.188l-0.079 0.301h-4.894l0.078-0.301c0.968-0.027 1.727-0.766 1.906-2.078l2.36-15.587-4.083 7.739c-0.392 0.794-0.838 1.614-1.283 2.462l-1.073 2.027-1.413 2.762c-0.655 1.28-0.916 2.027-0.916 2.679-0.602 0.191-1.181 0.448-1.727 0.766l-1.86-18.626-3.925 15.342c-0.523 1.641 0.131 2.433 1.623 2.515l-0.078 0.301h-4.973l0.078-0.301c1.388-0.027 2.33-0.875 2.853-2.489l3.663-14.246c0.497-1.532 0.053-2.325-1.386-2.352l0.052-0.301h3.795l1.86 17.638 2.356-4.431 2.063-3.937c2.386-4.54 3.747-7.247 4.087-8.091 0.155-0.38 0.278-0.773 0.367-1.173l3.69-0.006z"></path>
<path d="M74.477 10.416h-0.318c-0.106-1.231-0.409-3.244-0.697-3.763-0.288-0.547-0.785-0.93-1.519-1.173-0.701-0.253-1.849-0.359-3.449-0.359h-3.060l-1.809 7.904h3.533c1.78 0 2.565-0.683 2.958-2.133h0.318l-1.103 4.704h-0.289c0.318-1.723-0.13-2.24-1.989-2.24h-3.507l-2.355 10.255c0.811 0.355 1.907 0.547 3.298 0.547 1.885 0 3.486-0.329 4.555-0.96s2.684-2.773 3.707-4.683h0.34l-3.284 6.293c-0.759-0.218-1.806-0.328-3.141-0.329h-8.983l0.080-0.301c1.073-0.082 1.675-0.628 1.989-2.050l3.458-15.038c0.318-1.422-0.026-1.915-1.073-1.996l0.078-0.301h8.218c1.597 0 2.827-0.192 3.638-0.547l0.405 6.17z"></path>
<path d="M92.632 4.794l-0.053 0.301c-1.466 0.027-2.224 0.738-2.747 2.926l-3.141 13.235c-0.233 0.881-0.215 1.81 0.051 2.681-0.603 0.301-1.165 0.678-1.674 1.121l-6.657-17.885-2.845 13.973c-0.445 1.941 0.106 2.953 1.649 3.062l-0.052 0.273h-5.314l0.052-0.273c1.624-0.082 2.672-1.121 3.142-3.062l2.765-12.826c0.499-2.106-0.051-3.172-1.597-3.227l0.079-0.301h3.272l6.552 17.394 3.271-14.165c0.446-2.051-0.025-2.845-1.622-2.926l0.053-0.301 4.816-0.001z"></path>
<path d="M23.922 4.794l-0.079 0.301c-1.151 0.027-1.884 0.656-2.093 2.297l-2.095 14.603c-0.182 1.395 0.184 2.133 1.126 2.188l-0.078 0.301h-4.894l0.078-0.301c0.968-0.027 1.728-0.766 1.906-2.078l2.36-15.587-4.083 7.739c-0.393 0.794-0.838 1.614-1.283 2.462l-1.073 2.027-1.413 2.762c-0.655 1.28-0.916 2.027-0.916 2.679-0.602 0.191-1.181 0.448-1.727 0.766l-1.86-18.626-3.925 15.342c-0.523 1.641 0.131 2.433 1.623 2.515l-0.078 0.301h-4.973l0.078-0.301c1.388-0.027 2.33-0.875 2.852-2.489l3.664-14.246c0.497-1.532 0.053-2.325-1.387-2.352l0.053-0.301h3.795l1.86 17.638 2.356-4.431 2.067-3.937c2.382-4.54 3.743-7.247 4.083-8.091 0.155-0.38 0.278-0.772 0.366-1.173l3.691-0.006z"></path>
<path d="M38.695 10.416h-0.318c-0.106-1.231-0.409-3.244-0.697-3.763-0.288-0.547-0.786-0.93-1.519-1.173-0.701-0.253-1.853-0.359-3.45-0.359h-3.063l-1.801 7.903h3.533c1.78 0 2.565-0.683 2.958-2.133h0.318l-1.104 4.705h-0.288c0.318-1.723-0.13-2.24-1.989-2.24h-3.512l-2.356 10.253c0.811 0.355 1.906 0.547 3.298 0.547 1.884 0 3.486-0.329 4.554-0.96s2.684-2.773 3.707-4.683h0.34l-3.283 6.293c-0.758-0.218-1.805-0.328-3.14-0.329h-8.982l0.079-0.301c1.073-0.082 1.674-0.628 1.989-2.050l3.455-15.040c0.318-1.422-0.026-1.915-1.074-1.996l0.079-0.301h8.218c1.597 0 2.827-0.192 3.638-0.547l0.407 6.174z"></path>
</symbol>
<symbol id="icon-logo2_2x" viewBox="0 0 93 32">
<path d="M59.705 4.794l-0.080 0.301c-1.151 0.027-1.884 0.656-2.093 2.297l-2.094 14.603c-0.183 1.395 0.183 2.133 1.125 2.188l-0.079 0.301h-4.894l0.078-0.301c0.968-0.027 1.727-0.766 1.906-2.078l2.36-15.587-4.083 7.739c-0.392 0.794-0.838 1.614-1.283 2.462l-1.073 2.027-1.413 2.762c-0.655 1.28-0.916 2.027-0.916 2.679-0.602 0.191-1.181 0.448-1.727 0.766l-1.86-18.626-3.925 15.342c-0.523 1.641 0.131 2.433 1.623 2.515l-0.078 0.301h-4.973l0.078-0.301c1.388-0.027 2.33-0.875 2.853-2.489l3.663-14.246c0.497-1.532 0.053-2.325-1.386-2.352l0.052-0.301h3.795l1.86 17.638 2.356-4.431 2.063-3.937c2.386-4.54 3.747-7.247 4.087-8.091 0.155-0.38 0.278-0.773 0.367-1.173l3.69-0.006z"></path>
<path d="M74.477 10.416h-0.318c-0.106-1.231-0.409-3.244-0.697-3.763-0.288-0.547-0.785-0.93-1.519-1.173-0.701-0.253-1.849-0.359-3.449-0.359h-3.060l-1.809 7.904h3.533c1.78 0 2.565-0.683 2.958-2.133h0.318l-1.103 4.704h-0.289c0.318-1.723-0.13-2.24-1.989-2.24h-3.507l-2.355 10.255c0.811 0.355 1.907 0.547 3.298 0.547 1.885 0 3.486-0.329 4.555-0.96s2.684-2.773 3.707-4.683h0.34l-3.284 6.293c-0.759-0.218-1.806-0.328-3.141-0.329h-8.983l0.080-0.301c1.073-0.082 1.675-0.628 1.989-2.050l3.458-15.038c0.318-1.422-0.026-1.915-1.073-1.996l0.078-0.301h8.218c1.597 0 2.827-0.192 3.638-0.547l0.405 6.17z"></path>
<path d="M92.632 4.794l-0.053 0.301c-1.466 0.027-2.224 0.738-2.747 2.926l-3.141 13.235c-0.233 0.881-0.215 1.81 0.051 2.681-0.603 0.301-1.165 0.678-1.674 1.121l-6.657-17.885-2.845 13.973c-0.445 1.941 0.106 2.953 1.649 3.062l-0.052 0.273h-5.314l0.052-0.273c1.624-0.082 2.672-1.121 3.142-3.062l2.765-12.826c0.499-2.106-0.051-3.172-1.597-3.227l0.079-0.301h3.272l6.552 17.394 3.271-14.165c0.446-2.051-0.025-2.845-1.622-2.926l0.053-0.301 4.816-0.001z"></path>
<path d="M23.922 4.794l-0.079 0.301c-1.151 0.027-1.884 0.656-2.093 2.297l-2.095 14.603c-0.182 1.395 0.184 2.133 1.126 2.188l-0.078 0.301h-4.894l0.078-0.301c0.968-0.027 1.728-0.766 1.906-2.078l2.36-15.587-4.083 7.739c-0.393 0.794-0.838 1.614-1.283 2.462l-1.073 2.027-1.413 2.762c-0.655 1.28-0.916 2.027-0.916 2.679-0.602 0.191-1.181 0.448-1.727 0.766l-1.86-18.626-3.925 15.342c-0.523 1.641 0.131 2.433 1.623 2.515l-0.078 0.301h-4.973l0.078-0.301c1.388-0.027 2.33-0.875 2.852-2.489l3.664-14.246c0.497-1.532 0.053-2.325-1.387-2.352l0.053-0.301h3.795l1.86 17.638 2.356-4.431 2.067-3.937c2.382-4.54 3.743-7.247 4.083-8.091 0.155-0.38 0.278-0.772 0.366-1.173l3.691-0.006z"></path>
<path d="M38.695 10.416h-0.318c-0.106-1.231-0.409-3.244-0.697-3.763-0.288-0.547-0.786-0.93-1.519-1.173-0.701-0.253-1.853-0.359-3.45-0.359h-3.063l-1.801 7.903h3.533c1.78 0 2.565-0.683 2.958-2.133h0.318l-1.104 4.705h-0.288c0.318-1.723-0.13-2.24-1.989-2.24h-3.512l-2.356 10.253c0.811 0.355 1.906 0.547 3.298 0.547 1.884 0 3.486-0.329 4.554-0.96s2.684-2.773 3.707-4.683h0.34l-3.283 6.293c-0.758-0.218-1.805-0.328-3.14-0.329h-8.982l0.079-0.301c1.073-0.082 1.674-0.628 1.989-2.050l3.455-15.040c0.318-1.422-0.026-1.915-1.074-1.996l0.079-0.301h8.218c1.597 0 2.827-0.192 3.638-0.547l0.407 6.174z"></path>
</symbol>
</defs>
</svg>
